<svg width="212" height="212" viewBox="0 0 212 212" fill="none" xmlns="http://www.w3.org/2000/svg">
<path d="M105.894 0C47.382 0 0 47.488 0 106C0 164.512 47.382 212 105.894 212C164.512 212 212 164.512 212 106C212 47.488 164.512 0 105.894 0ZM106 190.8C59.148 190.8 21.2 152.852 21.2 106C21.2 59.148 59.148 21.2 106 21.2C152.852 21.2 190.8 59.148 190.8 106C190.8 152.852 152.852 190.8 106 190.8ZM106 164.3C130.698 164.3 151.792 148.93 160.272 127.2H142.57C135.256 139.814 121.688 148.4 106 148.4C90.312 148.4 76.85 139.814 69.43 127.2H51.728C60.208 148.93 81.302 164.3 106 164.3Z" fill="#88D8EC"/>
<path d="M143.099 100.699C151.881 100.699 158.999 93.5807 158.999 84.7994C158.999 76.0181 151.881 68.8994 143.099 68.8994C134.318 68.8994 127.199 76.0181 127.199 84.7994C127.199 93.5807 134.318 100.699 143.099 100.699Z" fill="#88D8EC"/>
<path d="M68.9 100.699C77.6813 100.699 84.8 93.5807 84.8 84.7994C84.8 76.0181 77.6813 68.8994 68.9 68.8994C60.1187 68.8994 53 76.0181 53 84.7994C53 93.5807 60.1187 100.699 68.9 100.699Z" fill="#88D8EC"/>
</svg>
