<svg width="35" height="35" viewBox="0 0 35 35" fill="none" xmlns="http://www.w3.org/2000/svg">
<g clip-path="url(#clip0_836_256)">
<path d="M26.7969 0H8.20312C3.67266 0 0 3.67266 0 8.20312V26.7969C0 31.3273 3.67266 35 8.20312 35H26.7969C31.3273 35 35 31.3273 35 26.7969V8.20312C35 3.67266 31.3273 0 26.7969 0Z" fill="#CD6799"/>
<mask id="mask0_836_256" style="mask-type:luminance" maskUnits="userSpaceOnUse" x="3" y="7" width="29" height="21">
<path d="M3.82812 7.24609H31.1719V27.7415H3.82812V7.24609Z" fill="white"/>
</mask>
<g mask="url(#mask0_836_256)">
<path d="M27.3577 19.0266C26.4042 19.0315 25.5757 19.2612 24.8818 19.6005C24.6273 19.0964 24.3727 18.6472 24.3277 18.3177C24.2778 17.9334 24.2179 17.6987 24.2778 17.2395C24.3377 16.7803 24.6073 16.1265 24.6023 16.0766C24.5972 16.0267 24.5424 15.7921 23.9933 15.787C23.4442 15.7819 22.9701 15.8919 22.9151 16.0367C22.8602 16.1813 22.7555 16.5108 22.6856 16.8503C22.5907 17.3494 21.5873 19.1314 21.0134 20.0648C20.8287 19.7004 20.669 19.3809 20.634 19.1264C20.5841 18.742 20.5242 18.5074 20.5841 18.0482C20.644 17.589 20.9136 16.935 20.9085 16.8851C20.9035 16.8352 20.8486 16.6006 20.2996 16.5957C19.7505 16.5908 19.2762 16.7004 19.2214 16.8452C19.1665 16.99 19.1066 17.3295 18.9917 17.6588C18.877 17.9883 17.5443 20.9633 17.1948 21.7319C17.0537 22.043 16.9056 22.3509 16.7506 22.6553C16.7506 22.6553 16.7456 22.6704 16.7307 22.6953C16.682 22.7907 16.632 22.8856 16.5808 22.9798V22.9848C16.506 23.1196 16.4261 23.2443 16.3861 23.2443C16.3562 23.2443 16.3014 22.885 16.3961 22.3959C16.5959 21.3625 17.07 19.7553 17.0651 19.7004C17.0651 19.6705 17.1549 19.3909 16.7556 19.2461C16.3662 19.1013 16.2265 19.341 16.1915 19.341C16.1566 19.341 16.1316 19.4259 16.1316 19.4259C16.1316 19.4259 16.5659 17.6189 15.3031 17.6189C14.5143 17.6189 13.4262 18.4824 12.8872 19.2612C12.2744 19.5946 11.662 19.9291 11.0501 20.2644C10.7558 20.4292 10.4513 20.5939 10.1667 20.7487C10.1467 20.7287 10.1267 20.7037 10.1068 20.6837C8.57937 19.0514 5.75421 17.8985 5.87398 15.7072C5.91896 14.9085 6.19349 12.812 11.2998 10.2663C15.5027 8.19488 18.8471 8.76882 19.4261 10.0417C20.2546 11.8587 17.6341 15.2329 13.2915 15.7221C11.6342 15.9068 10.7658 15.2679 10.5462 15.0284C10.3165 14.7787 10.2815 14.7638 10.1966 14.8137C10.0569 14.8885 10.1467 15.1131 10.1966 15.2429C10.3265 15.5823 10.8605 16.1813 11.764 16.4758C12.5627 16.7354 14.5043 16.8802 16.8554 15.9717C19.486 14.9534 21.5425 12.1231 20.9385 9.75224C20.3346 7.34626 16.3413 6.55261 12.5627 7.89533C10.3164 8.69404 7.8806 9.95185 6.12855 11.5891C4.047 13.5359 3.71765 15.228 3.85245 15.9367C4.33657 18.4525 7.80568 20.0897 9.19337 21.3027C9.12351 21.3426 9.05857 21.3776 9.00374 21.4075C8.30989 21.7519 5.66439 23.1345 5.0054 24.5972C4.25673 26.2543 5.1253 27.4423 5.69925 27.602C7.48124 28.0962 9.31314 27.2077 10.2966 25.7401C11.28 24.2726 11.1601 22.3659 10.7058 21.4924C10.7008 21.4814 10.6941 21.4713 10.6858 21.4625C10.8656 21.3576 11.0501 21.2478 11.2299 21.143C11.5603 20.9478 11.8948 20.7597 12.2332 20.5789C12.0635 21.0432 11.9387 21.5971 11.8788 22.3959C11.804 23.3343 12.1883 24.5522 12.6924 25.0314C12.917 25.241 13.1816 25.246 13.3514 25.246C13.9404 25.246 14.2049 24.7568 14.4994 24.1778C14.8587 23.469 15.1833 22.6454 15.1833 22.6454C15.1833 22.6454 14.7789 24.8717 15.877 24.8717C16.2764 24.8717 16.6806 24.3526 16.8604 24.088V24.0929C16.8604 24.0929 16.8704 24.078 16.8904 24.043C16.9303 23.9781 16.9552 23.9382 16.9552 23.9382V23.9282C17.115 23.6487 17.4743 23.0148 18.0084 21.9615C18.6972 20.6039 19.3611 18.9068 19.3611 18.9068C19.3611 18.9068 19.421 19.321 19.6257 20.0098C19.7455 20.4143 19.9951 20.8585 20.1947 21.2877C20.035 21.5124 19.9352 21.6371 19.9352 21.6371L19.9401 21.6421C19.8104 21.8118 19.6707 21.9965 19.5159 22.1761C18.9718 22.8251 18.3229 23.5689 18.2331 23.7835C18.1282 24.0381 18.1532 24.2227 18.3528 24.3725C18.4976 24.4823 18.7571 24.4972 19.0217 24.4823C19.5109 24.4473 19.8554 24.3276 20.0251 24.2526C20.2896 24.1579 20.5991 24.0131 20.8886 23.7984C21.4227 23.4042 21.7472 22.8401 21.7172 22.0963C21.7022 21.687 21.5674 21.2778 21.4028 20.8933C21.4527 20.8235 21.4975 20.7536 21.5474 20.6837C22.3911 19.4508 23.0449 18.0981 23.0449 18.0981C23.0449 18.0981 23.1048 18.5124 23.3094 19.2013C23.4092 19.5506 23.6139 19.93 23.7937 20.2994C23.0001 20.9434 22.5109 21.692 22.3361 22.1812C22.0217 23.0897 22.2663 23.4989 22.7304 23.5938C22.9402 23.6388 23.2396 23.539 23.4593 23.4441C23.7387 23.3543 24.0682 23.1995 24.3827 22.9698C24.9167 22.5755 25.4309 22.0264 25.401 21.2827C25.3859 20.9434 25.2961 20.6088 25.1713 20.2844C25.8452 20.0049 26.7137 19.8502 27.8218 19.9799C30.1979 20.2595 30.6671 21.7419 30.5771 22.3659C30.4873 22.9898 29.9882 23.3292 29.8234 23.4341C29.6588 23.539 29.6038 23.5738 29.6189 23.6487C29.6388 23.7585 29.7187 23.7535 29.8584 23.7335C30.0531 23.6986 31.1062 23.2294 31.1512 22.0814C31.2261 20.6139 29.8285 19.0115 27.3577 19.0266ZM9.02862 25.2061C8.24003 26.0646 7.14191 26.3891 6.66763 26.1146C6.15849 25.82 6.3581 24.5522 7.32661 23.6437C7.91546 23.0897 8.67425 22.5755 9.17833 22.261C9.29318 22.1912 9.46284 22.0914 9.66751 21.9666C9.70251 21.9466 9.72247 21.9366 9.72247 21.9366L9.84224 21.8617C10.1966 23.1596 9.85714 24.3027 9.02862 25.2061ZM14.769 21.3027C14.4945 21.9716 13.9206 23.6836 13.5711 23.5889C13.2717 23.5089 13.087 22.2111 13.5112 20.9283C13.7259 20.2844 14.18 19.5157 14.4446 19.2162C14.8739 18.737 15.348 18.5773 15.4629 18.772C15.6077 19.0266 14.9388 20.8833 14.769 21.3027ZM19.5061 23.5689C19.3912 23.6288 19.2814 23.6687 19.2315 23.6388C19.1965 23.6188 19.2814 23.539 19.2814 23.539C19.2814 23.539 19.8755 22.8999 20.1101 22.6105C20.2448 22.4407 20.4046 22.2411 20.5742 22.0165V22.0814C20.5742 22.8451 19.8356 23.3592 19.5061 23.5689ZM23.1599 22.7352C23.075 22.6753 23.09 22.4757 23.3745 21.8517C23.4843 21.6071 23.7439 21.1979 24.1881 20.8035C24.238 20.9633 24.273 21.1179 24.268 21.2627C24.2631 22.2262 23.5741 22.5855 23.1599 22.7352Z" fill="white"/>
</g>
</g>
<defs>
<clipPath id="clip0_836_256">
<rect width="35" height="35" fill="white"/>
</clipPath>
</defs>
</svg>
