<svg width="38" height="35" viewBox="0 0 38 35" fill="none" xmlns="http://www.w3.org/2000/svg">
<path d="M18.9981 34.999L25.994 13.4678H12.002L18.9981 34.999Z" fill="#E24329"/>
<path d="M18.996 34.999L11.9998 13.4678H2.19531L18.996 34.999Z" fill="#FC6D26"/>
<path d="M2.1969 13.4678L0.0709562 20.0111C-0.0236165 20.3019 -0.0236529 20.6153 0.0708522 20.9062C0.165357 21.1971 0.34955 21.4506 0.597021 21.6304L18.9975 34.9991L2.1969 13.4678Z" fill="#FCA326"/>
<path d="M2.19531 13.4686H11.9998L7.78642 0.500426C7.56958 -0.166883 6.62557 -0.166734 6.40888 0.500426L2.19531 13.4686Z" fill="#E24329"/>
<path d="M18.998 34.999L25.994 13.4678H35.7987L18.998 34.999Z" fill="#FC6D26"/>
<path d="M35.7987 13.4678L37.9246 20.0111C38.0192 20.302 38.0192 20.6153 37.9247 20.9062C37.8301 21.1971 37.6459 21.4506 37.3984 21.6304L18.998 34.9991L35.7987 13.4678Z" fill="#FCA326"/>
<path d="M35.7969 13.4686H25.9922L30.2058 0.500426C30.4226 -0.166883 31.3666 -0.166734 31.5833 0.500426L35.7969 13.4686Z" fill="#E24329"/>
</svg>
