<svg width="35" height="35" viewBox="0 0 35 35" fill="none" xmlns="http://www.w3.org/2000/svg">
<path d="M34.3397 15.9411L19.0583 0.660024C18.1788 -0.220008 16.7515 -0.220008 15.8707 0.660024L12.6977 3.83358L16.723 7.85888C17.6587 7.54308 18.7311 7.7549 19.4767 8.50046C20.2261 9.25074 20.4363 10.3323 20.1127 11.2712L23.9921 15.1509C24.9307 14.8273 26.0139 15.0364 26.7631 15.7872C27.8111 16.8344 27.8111 18.5321 26.7631 19.5799C26.514 19.8291 26.2183 20.0267 25.8928 20.1616C25.5674 20.2965 25.2185 20.3659 24.8662 20.3659C24.5139 20.3659 24.165 20.2965 23.8396 20.1616C23.5141 20.0267 23.2184 19.8291 22.9693 19.5799C22.5952 19.2054 22.3402 18.7287 22.2364 18.2096C22.1325 17.6906 22.1845 17.1524 22.3857 16.6628L18.768 13.0451L18.7675 22.5666C19.03 22.6958 19.2696 22.867 19.477 23.0734C20.5245 24.1206 20.5245 25.8177 19.477 26.8672C18.4292 27.9144 16.731 27.9144 15.6843 26.8672C14.6369 25.818 14.6369 24.1209 15.6843 23.0734C15.9355 22.8223 16.234 22.6235 16.5624 22.4884V12.8787C16.2336 12.7442 15.935 12.5452 15.6843 12.2934C14.8908 11.5004 14.6998 10.3359 15.1068 9.36109L11.1384 5.39262L0.66021 15.8704C0.237478 16.2933 0 16.8667 0 17.4646C0 18.0626 0.237478 18.636 0.66021 19.0589L15.9419 34.34C16.8219 35.22 18.2487 35.22 19.1301 34.34L34.34 19.1299C34.7627 18.7069 35.0001 18.1334 35 17.5354C34.9999 16.9375 34.7625 16.364 34.3397 15.9411Z" fill="#F34F29"/>
</svg>
