<svg width="219" height="219" viewBox="0 0 219 219" fill="none" xmlns="http://www.w3.org/2000/svg">
<path d="M80.8203 43.6591C58.0307 69.2415 42.3907 105.995 40.9384 109.459L0.498047 92.1429L45.7421 46.8988C50.9927 41.6482 58.5892 39.3022 65.9623 40.7545L80.8203 43.6591ZM102.94 162.634C102.94 162.634 144.721 145.319 168.739 121.3C229.065 60.9747 219.01 13.8315 215.771 3.21865C205.158 -0.132763 158.015 -10.0753 97.6891 50.2502C73.6706 74.2687 56.355 116.05 56.355 116.05L102.94 162.634ZM175.33 138.169C149.748 160.959 112.994 176.599 109.531 178.051L126.846 218.491L172.09 173.247C177.341 167.997 179.687 160.4 178.235 153.027L175.33 138.169ZM78.6977 173.806C78.6977 183.078 74.8995 191.456 68.8669 197.489C55.6847 210.671 0.498047 218.491 0.498047 218.491C0.498047 218.491 8.31802 163.305 21.5002 150.122C27.5328 144.09 35.9113 140.292 45.1836 140.292C63.7281 140.292 78.6977 155.261 78.6977 173.806ZM123.383 73.2632C123.383 60.9747 133.438 50.9205 145.726 50.9205C158.015 50.9205 168.069 60.9747 168.069 73.2632C168.069 85.5518 158.015 95.606 145.726 95.606C133.438 95.606 123.383 85.5518 123.383 73.2632Z" fill="#9A69E1"/>
</svg>
