<svg width="36" height="35" viewBox="0 0 36 35" fill="none" xmlns="http://www.w3.org/2000/svg">
<path d="M6.35693 0H29.5405C33.0556 0 35.8974 2.84179 35.8974 6.35693V28.6431C35.8974 32.1582 33.0556 35 29.5405 35H6.35693C2.84179 35 0 32.1582 0 28.6431V6.35693C0 2.84179 2.84179 0 6.35693 0Z" fill="#470137"/>
<path d="M18.8772 9.19884L14.39 16.6027L19.1762 24.4553C19.2062 24.515 19.221 24.575 19.2062 24.6347C19.1913 24.6945 19.1313 24.6496 19.0415 24.6647H15.6164C15.3772 24.6647 15.2126 24.6496 15.108 24.5001C14.7939 23.8719 14.4646 23.2586 14.1505 22.6304C13.8364 22.0173 13.4926 21.3891 13.1336 20.7458C12.7746 20.1024 12.4157 19.4596 12.0567 18.8014H12.0267C11.7126 19.4445 11.3685 20.0878 11.0246 20.7309C10.6828 21.3676 10.3438 22.0059 10.0075 22.6455C9.66334 23.2737 9.31951 23.9168 8.9754 24.5301C8.91567 24.6796 8.79592 24.6945 8.63129 24.6945H5.34079C5.28105 24.6945 5.23618 24.7245 5.23618 24.6496C5.22948 24.6216 5.22867 24.5926 5.23378 24.5643C5.2389 24.536 5.24984 24.5091 5.26591 24.4853L9.91771 16.8571L5.38566 9.18398C5.34079 9.12396 5.32592 9.06423 5.35565 9.03422C5.38566 8.98935 5.4454 8.97448 5.50541 8.97448H8.90052C8.9754 8.97448 9.05028 8.98935 9.11002 9.00449C9.16975 9.03422 9.21463 9.07909 9.2595 9.13911C9.54387 9.78217 9.87284 10.4252 10.2169 11.0686C10.5759 11.7117 10.9198 12.3399 11.2939 12.9681C11.6528 13.5963 11.9818 14.2245 12.2959 14.8676H12.3259C12.64 14.2096 12.969 13.5663 13.298 12.9381C13.6269 12.3099 13.971 11.6817 14.3151 11.0534C14.6593 10.4252 14.9882 9.78217 15.3172 9.16883C15.3323 9.1091 15.3621 9.04936 15.4069 9.01935C15.467 8.98935 15.5267 8.97448 15.6016 8.98935H18.7575C18.7752 8.98534 18.7935 8.98488 18.8114 8.98799C18.8292 8.99111 18.8463 8.99773 18.8616 9.00748C18.8769 9.01723 18.8902 9.02992 18.9005 9.04481C18.9109 9.0597 18.9182 9.0765 18.9221 9.09423C18.9369 9.1091 18.9069 9.16883 18.8772 9.19884ZM25.7875 24.9788C24.6805 24.9937 23.5736 24.7694 22.5716 24.3058C21.6293 23.8719 20.8516 23.154 20.3131 22.2714C19.7595 21.3591 19.4903 20.2224 19.4903 18.8611C19.4754 17.7545 19.7595 16.6624 20.3131 15.7053C20.8813 14.7329 21.7041 13.9252 22.6913 13.3868C23.7382 12.8034 24.9946 12.5194 26.4754 12.5194C26.5503 12.5194 26.6549 12.5194 26.7895 12.5342C26.9241 12.5494 27.0736 12.5494 27.2531 12.5642V7.83782C27.2531 7.73294 27.298 7.6732 27.4028 7.6732H30.439C30.5139 7.65834 30.5736 7.71807 30.5887 7.77781V22.047C30.5887 22.3163 30.6036 22.6155 30.6185 22.9445C30.6485 23.2586 30.6633 23.5578 30.6785 23.8122C30.6785 23.9168 30.6336 24.0065 30.5287 24.0514C29.7453 24.3807 28.9276 24.6215 28.0908 24.7694C27.328 24.904 26.5651 24.9788 25.7875 24.9788ZM27.2531 21.9873V15.406C27.1185 15.3763 26.9839 15.3463 26.8492 15.3314C26.6853 15.3138 26.5206 15.3038 26.3557 15.3014C25.7723 15.3014 25.189 15.4212 24.6657 15.6904C24.1545 15.945 23.7168 16.3259 23.3941 16.797C23.0651 17.2758 22.9005 17.9188 22.9005 18.6968C22.8878 19.2217 22.9741 19.7443 23.1549 20.2373C23.3044 20.6412 23.5287 21.0001 23.828 21.2994C24.1163 21.5747 24.4644 21.7794 24.8452 21.8976C25.249 22.0322 25.6677 22.0919 26.0864 22.0919C26.3108 22.0919 26.5203 22.077 26.7146 22.0622C26.9093 22.077 27.0736 22.047 27.2531 21.9873Z" fill="#FF61F6"/>
</svg>
