<svg width="77" height="78" viewBox="0 0 77 78" fill="none" xmlns="http://www.w3.org/2000/svg">
<path d="M36.4762 77.2004C35.7428 72.8671 33.8095 68.2004 30.6762 63.2004C27.5428 58.1337 23.0762 53.4337 17.2762 49.1004C11.5428 44.7671 5.80951 42.0004 0.0761719 40.8004V36.6004C5.74284 35.2671 11.1762 32.8004 16.3762 29.2004C21.6428 25.5337 26.0428 21.1337 29.5762 16.0004C33.1762 10.7337 35.4762 5.53372 36.4762 0.400391H40.6762C41.2762 3.73372 42.4762 7.16705 44.2762 10.7004C46.0762 14.1671 48.3762 17.5004 51.1762 20.7004C54.0428 23.8337 57.2428 26.6671 60.7762 29.2004C66.0428 32.9337 71.4095 35.4004 76.8762 36.6004V40.8004C73.2095 41.5337 69.4095 43.0337 65.4762 45.3004C61.6095 47.5671 58.0095 50.2671 54.6762 53.4004C51.3428 56.4671 48.6095 59.7004 46.4762 63.1004C43.3428 68.1004 41.4095 72.8004 40.6762 77.2004H36.4762Z" fill="white"/>
</svg>
