<svg width="36" height="35" viewBox="0 0 36 35" fill="none" xmlns="http://www.w3.org/2000/svg">
<path d="M6.35693 0H29.5405C33.0556 0 35.8974 2.84179 35.8974 6.35693V28.6431C35.8974 32.1582 33.0556 35 29.5405 35H6.35693C2.84179 35 0 32.1582 0 28.6431V6.35693C0 2.84179 2.84179 0 6.35693 0Z" fill="#001E36"/>
<path d="M12.8626 8.90039C12.4139 8.90039 11.9652 8.90039 11.5016 8.91554C11.0377 8.9304 10.6039 8.9304 10.2 8.94554C9.79616 8.96041 9.42233 8.96041 9.06335 8.97527C8.71924 8.99013 8.48002 8.99013 8.22565 8.99013C8.12104 8.99013 8.07617 9.04987 8.07617 9.15476V24.5458C8.07617 24.6804 8.13591 24.7404 8.25566 24.7404H11.1575C11.2621 24.7253 11.3369 24.6355 11.3218 24.5309V19.7296C11.6059 19.7296 11.8154 19.7296 11.9652 19.7445C12.1146 19.7594 12.3539 19.7594 12.7128 19.7594C13.9395 19.7594 15.0613 19.6247 16.0782 19.2509C17.0505 18.8919 17.8882 18.2637 18.4864 17.426C19.0847 16.5884 19.3839 15.5265 19.3839 14.2401C19.3839 13.5671 19.2644 12.924 19.04 12.2958C18.8023 11.6558 18.4299 11.0743 17.948 10.5907C17.3792 10.0381 16.6945 9.61904 15.9436 9.36397C15.1059 9.04987 14.089 8.90039 12.8626 8.90039ZM13.1963 11.8465C13.7292 11.8566 14.248 11.9497 14.7321 12.146C15.1659 12.3106 15.5249 12.6099 15.7793 12.9986C16.0178 13.4009 16.1372 13.8627 16.1234 14.3302C16.1234 14.9881 15.9736 15.4968 15.6595 15.8707C15.3303 16.2445 14.9115 16.5289 14.4331 16.6635C13.8795 16.843 13.2962 16.9324 12.7128 16.9324H11.92C11.7405 16.9324 11.5464 16.9176 11.3369 16.9027V11.8771C11.4416 11.8619 11.6511 11.8471 11.9503 11.8622C12.2344 11.8471 12.5782 11.8471 12.9672 11.8471C13.0439 11.8452 13.1202 11.845 13.1963 11.8465ZM25.7408 12.6102C24.6787 12.6102 23.7962 12.7745 23.0934 13.1335C22.4503 13.4327 21.8967 13.9112 21.5228 14.5094C21.1939 15.063 21.0141 15.676 21.0141 16.3194C21.0013 16.8485 21.1195 17.3726 21.3582 17.845C21.638 18.3481 22.0264 18.7824 22.4952 19.1163C23.1531 19.5663 23.8671 19.9284 24.619 20.1932C25.3518 20.4773 25.8454 20.7017 26.0849 20.896C26.3241 21.0907 26.4439 21.285 26.4439 21.4945C26.4439 21.7637 26.2793 22.0181 26.04 22.1227C25.7708 22.2573 25.367 22.3322 24.7985 22.3322C24.2003 22.3322 23.6018 22.2573 23.0333 22.1078C22.3806 21.9621 21.7548 21.7148 21.1787 21.375C21.1339 21.345 21.089 21.3302 21.0441 21.3602C20.9993 21.3899 20.9844 21.4496 20.9844 21.4945V24.0971C20.9695 24.2168 21.0441 24.3214 21.149 24.3812C21.634 24.6078 22.1471 24.7687 22.6746 24.8599C23.3477 24.9945 24.0205 25.0542 24.7085 25.0542C25.7854 25.0542 26.6831 24.8899 27.4159 24.5758C28.089 24.3066 28.6723 23.843 29.091 23.2445C29.4832 22.6561 29.6867 21.9622 29.6744 21.2553C29.6891 20.7212 29.571 20.1919 29.3305 19.7148C29.0462 19.206 28.6423 18.7873 28.1487 18.4732C27.4266 18.0198 26.6535 17.6532 25.8454 17.3812C25.4845 17.2318 25.1302 17.0671 24.7833 16.8876C24.589 16.783 24.4095 16.6483 24.2749 16.4837C24.1851 16.364 24.1254 16.2296 24.1254 16.095C24.1254 15.9604 24.1703 15.8109 24.2449 15.6912C24.3498 15.5417 24.5141 15.4368 24.7085 15.3919C24.9928 15.3173 25.3069 15.2722 25.6059 15.287C26.1744 15.287 26.7277 15.3619 27.2813 15.4817C27.79 15.5863 28.2685 15.7509 28.7172 15.9904C28.7769 16.0201 28.8518 16.0201 28.9864 15.9904C29.0098 15.9731 29.0288 15.9505 29.0418 15.9245C29.0548 15.8985 29.0615 15.8697 29.0613 15.8407V13.4027C29.0613 13.3427 29.0462 13.283 29.0313 13.2232C29.0013 13.1635 28.9416 13.1035 28.8818 13.0886C28.4693 12.92 28.037 12.8044 27.5954 12.7445C26.9812 12.6551 26.3614 12.6104 25.7408 12.6102Z" fill="#31A8FF"/>
</svg>
