<svg width="34" height="35" viewBox="0 0 34 35" fill="none" xmlns="http://www.w3.org/2000/svg">
<path d="M33.742 19.3082V31.2958C33.708 32.6897 33.032 33.4597 31.6361 33.5757C30.0341 33.7077 28.4242 33.7917 26.8162 33.8877C23.5764 34.0877 20.3358 34.2837 17.0946 34.4757C14.2247 34.6457 11.3548 34.7957 8.48889 34.9897C7.22093 35.0717 6.22297 34.6717 5.52099 33.5837C5.313 33.2617 5.04701 32.9717 4.81102 32.6637C3.61106 31.1158 2.4211 29.5638 1.21514 28.0239C0.404638 27.0301 -0.0256921 25.7802 0.00118713 24.498C0.0411857 17.6783 0.0171865 10.8625 0.0211864 4.04475C0.0211864 3.78742 0.0411856 3.53143 0.0811842 3.27678C0.265178 2.27681 0.885155 1.65683 1.89712 1.56084C3.55306 1.40484 5.235 1.29685 6.90494 1.17085L14.8847 0.58287C17.4406 0.396876 19.9965 0.218883 22.5524 0.0168898C23.8335 -0.0869909 25.1072 0.290994 26.1243 1.07685C28.3762 2.7108 30.6641 4.29074 32.948 5.88468C33.2124 6.05428 33.4265 6.29153 33.5682 6.57181C33.71 6.8521 33.7741 7.1652 33.754 7.47863C33.732 11.4205 33.742 15.3644 33.742 19.3082ZM31.4181 19.4622V9.25456C31.4181 8.2706 31.0721 7.93061 30.1181 7.98661L21.8184 8.45859L11.6388 9.05457C10.4428 9.12257 9.24686 9.1959 8.0509 9.27456C7.41693 9.31856 7.12894 9.59855 7.03494 10.2205C7.01094 10.4005 7.00094 10.5805 7.00494 10.7605V30.4798C7.00494 32.0138 7.41292 32.3977 8.95287 32.3077C10.4928 32.2178 12.0308 32.1178 13.5867 32.0278L30.0641 31.0818C30.9481 31.0318 31.3501 30.6418 31.4201 29.7638C31.4321 29.6098 31.4201 29.4559 31.4201 29.2919L31.4181 19.4622ZM28.9242 5.63069L28.9782 5.5287C28.8574 5.38035 28.7235 5.24314 28.5782 5.11871C27.4862 4.32074 26.3823 3.53877 25.2923 2.75279C24.5783 2.20681 23.6924 1.93282 22.7944 1.98282C21.0064 2.09082 19.2225 2.23281 17.4346 2.36281L5.94698 3.19678C5.12301 3.25678 4.28904 3.32077 3.48506 3.41677C3.3951 3.43476 3.31046 3.47314 3.23765 3.52896C3.16484 3.58478 3.10581 3.65655 3.06508 3.73876C3.03108 3.83676 3.19307 4.05675 3.31907 4.15874C4.21904 4.88472 5.13501 5.59869 6.04297 6.31467C6.53296 6.72265 7.15894 6.93465 7.79491 6.90865C8.1049 6.89465 8.41489 6.90865 8.72288 6.88065L17.0586 6.36867L28.1342 5.71669C28.3982 5.68602 28.6615 5.65736 28.9242 5.63069Z" fill="white"/>
<path d="M23.9321 22.8744V13.5547C23.4281 13.4947 22.9461 13.4247 22.4601 13.3887C22.1941 13.3687 22.1321 13.2487 22.1601 13.0148C22.1857 12.7609 22.2972 12.5235 22.4761 12.3416C22.6551 12.1598 22.8907 12.0445 23.1441 12.0148C24.75 11.8948 26.356 11.8128 27.9539 11.7168C28.1919 12.5108 27.9539 12.9008 27.1939 13.0507C26.356 13.2247 26.356 13.2247 26.356 14.0747V27.7642C26.356 28.0822 26.272 28.2762 25.972 28.3702C25.4434 28.5686 24.9046 28.7388 24.358 28.8802C23.4801 29.0642 22.7021 28.8202 22.1801 28.0622C21.4533 27.015 20.7433 25.9562 20.0502 24.8863C18.4422 22.3984 16.8543 19.9005 15.2564 17.4066C15.2244 17.3546 15.1804 17.3046 15.0904 17.1806C15.0704 17.3526 15.0524 17.4506 15.0524 17.5526V26.8723C15.0524 27.1463 15.1404 27.2583 15.4044 27.3082C15.9963 27.4242 16.5863 27.5662 17.1643 27.6962C17.1541 27.9864 17.0391 28.2631 16.8405 28.4749C16.6419 28.6867 16.3732 28.8193 16.0843 28.8482C15.5994 28.9137 15.1115 28.9538 14.6224 28.9682C13.4384 29.0402 12.2545 29.0962 11.0725 29.1802C10.7265 29.2042 10.6565 29.0602 10.7165 28.7782C10.7349 28.6091 10.8055 28.45 10.9183 28.3228C11.0312 28.1956 11.1808 28.1066 11.3465 28.0682C11.7185 27.9782 12.0865 27.8602 12.4545 27.7562V14.3767L10.7965 14.2287C10.7412 14.0561 10.7262 13.8731 10.7527 13.6938C10.7793 13.5145 10.8466 13.3436 10.9496 13.1945C11.0526 13.0453 11.1885 12.9218 11.3467 12.8334C11.505 12.745 11.6815 12.6942 11.8625 12.6848C13.3124 12.5688 14.7724 12.5248 16.2183 12.3608C16.8363 12.2928 17.1243 12.5208 17.4343 12.9988C19.4802 16.1506 21.5541 19.2905 23.6201 22.4324L23.9321 22.8744Z" fill="white"/>
</svg>
