<svg width="344" height="80" viewBox="0 0 344 80" fill="none" xmlns="http://www.w3.org/2000/svg">
<path fill-rule="evenodd" clip-rule="evenodd" d="M298 73.9869C298 75.5817 298.633 77.1112 299.759 78.2391C300.886 79.3666 302.414 80 304.007 80C305.6 80 307.128 79.3666 308.254 78.2391L342.241 44.2158C343.367 43.088 344 41.5585 344 39.9637C344 38.3689 343.367 36.8394 342.241 35.7115L308.254 1.6883C307.121 0.592738 305.604 -0.0134757 304.028 0.000227354C302.453 0.0139304 300.946 0.646447 299.832 1.76156C298.718 2.87667 298.086 4.38515 298.073 5.96209C298.059 7.53904 298.665 9.05828 299.759 10.1926L324.54 35H315H310V45H315H324.467L299.759 69.7348C298.633 70.8626 298 72.3921 298 73.9869ZM5 35H0L8.9407e-07 45H5H15H20V35H15H5ZM35 35H30V45H35H55H60V35H55H35ZM75 35H70V45H75H95H100V35H95H75ZM115 35H110V45H115H135H140V35H135H115ZM155 35L150 35V45L155 45H175H180V35H175H155ZM195 35H190V45H195L215 45H220V35H215L195 35ZM235 35H230V45H235L255 45H260V35H255L235 35ZM275 35H270V45H275L295 45H300V35H295L275 35Z" fill="white"/>
</svg>
