<svg width="31" height="35" viewBox="0 0 31 35" fill="none" xmlns="http://www.w3.org/2000/svg">
<path d="M30.8613 0L28.0498 31.4964L15.4118 35L2.80862 31.5012L0 0H30.8613Z" fill="#E44D26"/>
<path d="M15.4297 32.3225L25.6418 29.4913L28.0443 2.57617H15.4297V32.3225Z" fill="#F16529"/>
<path d="M9.96254 10.302H15.4281V6.43848H5.74023L5.83266 7.47497L6.78229 18.1218H15.4281V14.2583H10.3157L9.96254 10.302ZM10.8333 20.0536H6.95492L7.49615 26.1199L15.4103 28.3167L15.4281 28.3119V24.2922L15.4111 24.2967L11.1084 23.1349L10.8333 20.0536Z" fill="#EBEBEB"/>
<path d="M15.4161 18.1218H20.1736L19.7251 23.1324L15.416 24.2955V28.3149L23.3364 26.1198L23.3945 25.4671L24.3025 15.2957L24.3968 14.2583H15.4161V18.1218ZM15.4161 10.2925V10.302H24.7483L24.8257 9.43363L25.0019 7.47497L25.0942 6.43848H15.4161V10.2925Z" fill="white"/>
</svg>
