<svg width="35" height="35" viewBox="0 0 35 35" fill="none" xmlns="http://www.w3.org/2000/svg">
<path d="M26.7969 0H8.20312C3.67266 0 0 3.67266 0 8.20312V26.7969C0 31.3273 3.67266 35 8.20312 35H26.7969C31.3273 35 35 31.3273 35 26.7969V8.20312C35 3.67266 31.3273 0 26.7969 0Z" fill="#242938"/>
<mask id="mask0_836_307" style="mask-type:luminance" maskUnits="userSpaceOnUse" x="8" y="3" width="19" height="29">
<path d="M8.33984 3.82812H26.5727V31.1719H8.33984V3.82812Z" fill="white"/>
</mask>
<g mask="url(#mask0_836_307)">
<path d="M12.8972 31.1713C15.4129 31.1713 17.4545 29.1297 17.4545 26.614V22.0566H12.8972C10.3816 22.0566 8.33984 24.0984 8.33984 26.614C8.33984 29.1297 10.3816 31.1713 12.8972 31.1713Z" fill="#0ACF83"/>
<path d="M8.33984 17.5006C8.33984 14.985 10.3816 12.9434 12.8972 12.9434H17.4545V22.0579H12.8972C10.3816 22.0579 8.33984 20.0162 8.33984 17.5006Z" fill="#A259FF"/>
<path d="M8.33984 8.38537C8.33984 5.86975 10.3816 3.82812 12.8972 3.82812H17.4545V12.9428H12.8972C10.3816 12.9428 8.33984 10.901 8.33984 8.38537Z" fill="#F24E1E"/>
<path d="M17.4531 3.82812H22.0104C24.526 3.82812 26.5678 5.86975 26.5678 8.38537C26.5678 10.901 24.526 12.9428 22.0104 12.9428H17.4531V3.82812Z" fill="#FF7262"/>
<path d="M26.5678 17.5006C26.5678 20.0162 24.526 22.0579 22.0104 22.0579C19.4947 22.0579 17.4531 20.0162 17.4531 17.5006C17.4531 14.985 19.4947 12.9434 22.0104 12.9434C24.526 12.9434 26.5678 14.985 26.5678 17.5006Z" fill="#1ABCFE"/>
</g>
</svg>
