<svg width="35" height="35" viewBox="0 0 35 35" fill="none" xmlns="http://www.w3.org/2000/svg">
<path d="M7.35272 22.117C7.35272 24.1412 5.70184 25.7945 3.67733 25.7945C1.65281 25.7945 0 24.1412 0 22.117C0 20.0928 1.65336 18.4395 3.6776 18.4395H7.353L7.35272 22.117ZM9.20547 22.117C9.20547 20.0928 10.8588 18.4395 12.8831 18.4395C14.9073 18.4395 16.5607 20.0925 16.5607 22.117V31.3226C16.5607 33.3468 14.9076 35.0001 12.8831 35.0001C10.8588 35.0001 9.20547 33.3468 9.20547 31.3226V22.117Z" fill="#DE1C59"/>
<path d="M12.8831 7.3526C10.8588 7.3526 9.20547 5.70175 9.20547 3.67727C9.20547 1.65278 10.8588 0 12.8831 0C14.9073 0 16.5607 1.65333 16.5607 3.67754V7.35288L12.8831 7.3526ZM12.8831 9.20532C14.9073 9.20532 16.5607 10.8587 16.5607 12.8829C16.5607 14.9071 14.9076 16.5604 12.8831 16.5604H3.67733C1.65308 16.5604 0 14.9073 0 12.8829C0 10.8587 1.65336 9.20532 3.6776 9.20532H12.8831Z" fill="#35C5F0"/>
<path d="M27.6455 12.8829C27.6455 10.8587 29.2963 9.20532 31.3208 9.20532C33.3454 9.20532 34.9984 10.8587 34.9984 12.8829C34.9984 14.9071 33.3451 16.5604 31.3208 16.5604H27.6455V12.8829ZM25.7927 12.8829C25.7927 14.9071 24.1393 16.5604 22.1151 16.5604C20.0909 16.5604 18.4375 14.9073 18.4375 12.8829V3.67727C18.4375 1.65306 20.0906 0 22.1151 0C24.1393 0 25.7927 1.65333 25.7927 3.67754V12.8829Z" fill="#2EB57D"/>
<path d="M22.1151 27.6473C24.1393 27.6473 25.7927 29.2981 25.7927 31.3226C25.7927 33.3471 24.1393 35.0001 22.1151 35.0001C20.0909 35.0001 18.4375 33.3468 18.4375 31.3226V27.6473H22.1151ZM22.1151 25.7945C20.0909 25.7945 18.4375 24.1412 18.4375 22.117C18.4375 20.0928 20.0906 18.4395 22.1151 18.4395H31.3208C33.3451 18.4395 34.9984 20.0925 34.9984 22.117C34.9984 24.1412 33.3451 25.7945 31.3208 25.7945H22.1151Z" fill="#EBB02E"/>
</svg>
