<svg width="36" height="35" viewBox="0 0 36 35" fill="none" xmlns="http://www.w3.org/2000/svg">
<path d="M6.36109 0H29.5356C33.0384 0 35.8967 2.83026 35.8967 6.36109V28.6389C35.8967 32.1417 33.0665 35 29.5356 35H6.36109C2.83026 34.972 0 32.1417 0 28.6109V6.36109C0 2.83026 2.83026 0 6.36109 0Z" fill="#330000"/>
<path d="M17.3461 20.9332H11.7696L10.6487 24.436C10.6207 24.5761 10.5086 24.6602 10.3685 24.6322H7.56627C7.39814 24.6322 7.37012 24.5481 7.39814 24.352L12.218 10.5089C12.274 10.3688 12.3021 10.2006 12.3581 10.0045C12.4142 9.69624 12.4422 9.35997 12.4422 9.0237C12.4142 8.93964 12.4982 8.88359 12.5543 8.85557H16.4214C16.5334 8.85557 16.5895 8.91161 16.6175 8.96766L22.0819 24.352C22.1379 24.5201 22.0819 24.6042 21.9418 24.6042H18.8033C18.6912 24.6322 18.6071 24.5481 18.5511 24.436L17.3461 20.9332ZM12.6383 17.8788H16.4214C16.3373 17.5705 16.2252 17.1782 16.0851 16.8139C15.945 16.4216 15.8049 15.9733 15.6928 15.5249C15.5527 15.0485 15.4126 14.6002 15.2724 14.1518C15.1323 13.6754 14.9922 13.2551 14.8801 12.8348C14.768 12.4144 14.6559 12.0221 14.5439 11.6578H14.5158C14.3757 12.3023 14.2076 12.9468 14.0114 13.5914C13.7872 14.3199 13.5631 15.0485 13.3109 15.8051C13.0867 16.5617 12.8625 17.2623 12.6383 17.8788ZM25.4166 11.5177C24.9121 11.5457 24.4358 11.3496 24.0995 10.9853C23.7632 10.621 23.5671 10.1166 23.5951 9.61218C23.5671 9.10777 23.7632 8.63139 24.1275 8.29512C24.4918 7.95885 24.9682 7.7627 25.4446 7.7627C26.033 7.7627 26.4814 7.93083 26.8177 8.29512C27.1539 8.65941 27.3221 9.13579 27.3221 9.61218C27.3501 10.1166 27.1539 10.621 26.7897 10.9853C26.4254 11.3496 25.921 11.5457 25.4166 11.5177ZM23.7352 24.4921V12.9749C23.7352 12.8348 23.7913 12.7787 23.9314 12.7787H26.9017C27.0419 12.7787 27.0979 12.8628 27.0979 12.9749V24.4921C27.0979 24.6602 27.0419 24.7443 26.9017 24.7443H23.9594C23.8193 24.7163 23.7352 24.6322 23.7352 24.4921Z" fill="#FF9A00"/>
</svg>
