<svg width="44" height="35" viewBox="0 0 44 35" fill="none" xmlns="http://www.w3.org/2000/svg">
<path d="M6.7559 24.1318L4.46311 24.9686L4.33984 31.7829L12.2769 28.8862C9.55477 27.9729 7.56673 26.3654 6.7559 24.1318Z" fill="#FDBD39"/>
<path d="M7.95542 16.9248L0 19.8282L4.46265 24.9689L6.75544 24.1322C5.947 21.9051 6.44555 19.3876 7.95542 16.9248Z" fill="#F69833"/>
<path d="M21.3427 7.0919C11.2123 10.7891 4.68127 18.4181 6.75526 24.132L43.4407 10.7432C41.3667 5.02934 31.4731 3.39455 21.3427 7.09155" fill="#FECF33"/>
<path d="M28.8521 27.7832C38.9824 24.0861 45.5259 16.4907 43.4394 10.7432L6.75391 24.1317C8.84022 29.8793 18.7217 31.4802 28.8521 27.7832Z" fill="#EE6723"/>
<path d="M43.4394 10.7432L6.75391 24.1321C7.47229 26.111 10.2116 27.0859 14.0553 27.0859C17.8025 27.0859 22.5993 26.1601 27.6003 24.3349C37.7307 20.6378 44.8581 14.6517 43.4394 10.7435" fill="#F69833"/>
<path d="M36.1403 7.78906C32.393 7.78906 27.5961 8.71507 22.5952 10.54C12.4649 14.2372 5.33748 20.2232 6.75609 24.1316L43.4415 10.7429C42.7233 8.76398 39.9839 7.78906 36.1403 7.78906Z" fill="#FDBD39"/>
<path d="M34.1117 32.1433H34.1114C33.0321 32.1433 31.4397 31.1692 29.3786 29.2483C26.9399 26.9757 24.1465 23.6471 21.5131 19.8755C18.8794 16.1041 16.7154 12.3337 15.4195 9.25881C14.0076 5.90764 13.8062 3.84714 14.8211 3.13459C15.0437 2.97843 15.312 2.89941 15.6183 2.89941C16.4438 2.89941 18.0523 3.51344 21.0267 6.43872L21.0917 6.50269L21.0828 6.59351C21.0625 6.80345 21.0439 7.01355 21.027 7.22379L20.994 7.63702L20.7021 7.34334C17.4974 4.11789 16.0867 3.76966 15.6289 3.76966C15.4983 3.76966 15.3943 3.79617 15.3199 3.84851C14.8795 4.15757 14.8513 5.67093 16.2201 8.91946C17.4928 11.9397 19.6253 15.6533 22.2249 19.3756C24.8247 23.0984 27.5751 26.3779 29.9703 28.61C32.5527 31.0166 33.7166 31.2765 34.097 31.2765C34.2283 31.2765 34.3352 31.2484 34.4143 31.1926C34.8787 30.8668 34.8793 29.2455 33.3528 25.749L33.2826 25.5886L33.4362 25.5047C33.5896 25.4208 33.738 25.3382 33.877 25.2591L34.0609 25.1548L34.1455 25.3486C35.2278 27.8261 36.2397 30.9749 34.913 31.9067C34.6894 32.0636 34.4199 32.1433 34.1117 32.1433ZM34.1114 31.761H34.1117L34.1116 31.9521L34.1114 31.761Z" fill="#EE6723"/>
<path d="M29.0995 27.6787L29.0841 27.8691C28.828 31.035 28.1536 34.8413 26.3953 34.9952C26.36 34.9984 26.3237 35 26.2866 35C25.0923 35 23.9622 33.2903 22.9281 29.9184C21.9495 26.7284 21.1903 22.4452 20.7901 17.858C20.3898 13.2716 20.3958 8.92121 20.8068 5.60853C21.2552 1.99859 22.1082 0.113228 23.3424 0.00513116C23.379 0.00171039 23.4169 0 23.4542 0C24.3207 0 25.6266 0.980052 26.9634 5.54576L26.0906 5.71406C25.6443 4.1884 25.1577 2.94751 24.6747 2.09488C24.228 1.30622 23.7937 0.871956 23.4518 0.871956C23.4404 0.871956 23.4291 0.872355 23.4181 0.873153C22.8831 0.920188 22.1039 2.21666 21.6694 5.71611C21.2657 8.96961 21.2607 13.2546 21.6557 17.782C22.051 22.3101 22.7978 26.5293 23.7588 29.6624C24.189 31.0654 24.661 32.2218 25.1238 33.0065C25.5504 33.73 25.9634 34.1286 26.2863 34.1286C26.2975 34.1286 26.3086 34.1281 26.3197 34.1272C26.8316 34.0824 27.7963 32.7332 28.2022 27.9862L29.0995 27.6787Z" fill="#EE6723"/>
</svg>
