<svg width="31" height="35" viewBox="0 0 31 35" fill="none" xmlns="http://www.w3.org/2000/svg">
<path d="M15.4118 35L2.80862 31.5012L0 0H30.8613L28.0498 31.4964L15.4118 35Z" fill="#264DE4"/>
<path d="M25.6418 29.4913L28.0443 2.57617H15.4297V32.3225L25.6418 29.4913Z" fill="#2965F1"/>
<path d="M6.43607 14.2583L6.78229 18.1218H15.4281V14.2583H6.43607ZM5.74023 6.43848L6.09142 10.302H15.4281V6.43848H5.74023ZM15.4281 24.2922L15.4111 24.2967L11.1084 23.1349L10.8333 20.0536H6.95492L7.49615 26.1199L15.4103 28.3167L15.4281 28.3119V24.2922Z" fill="#EBEBEB"/>
<path d="M24.3968 14.2583L25.0942 6.43848H15.4161V10.302H20.8601L20.5086 14.2583H15.4161V18.1218H20.1736L19.7251 23.1324L15.416 24.2955V28.3149L23.3364 26.1198L23.3945 25.4671L24.3025 15.2957L24.3968 14.2583Z" fill="white"/>
</svg>
