<svg width="35" height="35" viewBox="0 0 35 35" fill="none" xmlns="http://www.w3.org/2000/svg">
<path d="M0 0H35V35H0V0Z" fill="#F5DE19"/>
<path d="M23.5111 27.3439C23.8098 27.9493 24.2732 28.4581 24.8481 28.8119C25.423 29.1657 26.0861 29.3501 26.7611 29.3439C28.1236 29.3439 28.9948 28.6627 28.9948 27.7189C28.9948 26.5939 28.0998 26.1914 26.5998 25.5352L25.7773 25.1827C23.4023 24.1714 21.8273 22.9052 21.8273 20.2277C21.8273 17.7614 23.7023 15.8827 26.6436 15.8827C27.5957 15.8141 28.5469 16.0273 29.3787 16.4956C30.2105 16.964 30.886 17.6668 31.3211 18.5164L28.7498 20.1602C28.5822 19.7389 28.2906 19.3786 27.9136 19.1268C27.5365 18.875 27.0919 18.7436 26.6386 18.7502C26.4408 18.7304 26.241 18.752 26.0521 18.8137C25.8631 18.8753 25.689 18.9757 25.541 19.1083C25.3929 19.241 25.2741 19.403 25.1921 19.5841C25.1102 19.7652 25.0668 19.9614 25.0648 20.1602C25.0648 21.1464 25.6761 21.5464 27.0873 22.1602L27.9098 22.5127C30.7048 23.7114 32.2848 24.9327 32.2848 27.6789C32.2848 30.6402 29.9586 32.2627 26.8348 32.2627C25.6178 32.3394 24.4046 32.0628 23.3412 31.466C22.2778 30.8692 21.4096 29.9777 20.8411 28.8989L23.5111 27.3439ZM11.8923 27.6289C12.4086 28.5452 12.8786 29.3202 14.0086 29.3202C15.0886 29.3202 15.7711 28.8977 15.7711 27.2539V16.0702H19.0598V27.2977C19.0598 30.7027 17.0598 32.2527 14.1486 32.2527C13.1195 32.3089 12.0975 32.0525 11.217 31.517C10.3364 30.9816 9.63841 30.1922 9.21484 29.2527L11.8923 27.6289Z" fill="black"/>
</svg>
