<svg width="35" height="21" viewBox="0 0 35 21" fill="none" xmlns="http://www.w3.org/2000/svg">
<path d="M17.5 0C12.8332 0 9.91758 2.33254 8.75 6.99954C10.4995 4.66673 12.5418 3.79196 14.8745 4.37523C16.2064 4.7072 17.1582 5.67303 18.2123 6.74332C19.9279 8.48439 21.9136 10.5 26.25 10.5C30.9165 10.5 33.8324 8.16718 35 3.49909C33.25 5.83309 31.2084 6.70832 28.8753 6.12477C27.5436 5.79253 26.5929 4.82697 25.5374 3.75668C23.823 2.01561 21.8378 0 17.5 0ZM8.75 10.5C4.08352 10.5 1.16758 12.8328 0 17.5009C1.74982 15.1669 3.7913 14.2917 6.12445 14.8752C7.45637 15.2075 8.4082 16.173 9.4623 17.2433C11.1779 18.9844 13.1636 21 17.5 21C22.1665 21 25.0824 18.6675 26.25 14.0005C24.5 16.3334 22.4584 17.2081 20.1253 16.6248C18.7936 16.2928 17.8429 15.327 16.7874 14.2567C15.073 12.5156 13.0878 10.5 8.75 10.5Z" fill="#38BDF8"/>
</svg>
