<svg width="35" height="35" viewBox="0 0 35 35" fill="none" xmlns="http://www.w3.org/2000/svg">
<g clip-path="url(#clip0_836_319)">
<path d="M26.7969 0H8.20312C3.67266 0 0 3.67266 0 8.20312V26.7969C0 31.3273 3.67266 35 8.20312 35H26.7969C31.3273 35 35 31.3273 35 26.7969V8.20312C35 3.67266 31.3273 0 26.7969 0Z" fill="url(#paint0_linear_836_319)"/>
<path d="M10.8331 9.39791C9.46781 11.3965 9.63788 13.9962 10.678 16.1171L10.7546 16.2682L10.8063 16.3639C10.8159 16.3825 10.8268 16.4008 10.8368 16.4188C10.8548 16.4525 10.8729 16.4847 10.8885 16.5178L10.988 16.6917L11.0447 16.7874L11.1602 16.9714L11.2119 17.049C11.2636 17.1317 11.322 17.2138 11.3794 17.2949L11.3841 17.3013C11.3931 17.3143 11.4032 17.3272 11.41 17.3402C11.4595 17.4099 11.5133 17.4787 11.5649 17.5469L11.6224 17.6213L11.7632 17.7976L11.8169 17.8633C11.881 17.9406 11.9465 18.0167 12.0134 18.0917L12.0175 18.0958C12.0201 18.0991 12.0227 18.101 12.0253 18.1043C12.09 18.1775 12.1565 18.249 12.2247 18.3188L12.2889 18.3844L12.4483 18.5437L12.5134 18.6067C12.5851 18.6754 12.6579 18.7428 12.7317 18.8091L12.7731 18.8452L12.9714 19.0158L13.0534 19.0825L13.2188 19.2117L13.3073 19.2802L13.5601 19.4649C13.5665 19.4693 13.5721 19.4739 13.5787 19.4783C13.638 19.5197 13.6983 19.5598 13.7587 19.5999L13.8368 19.6528L14.119 19.8286L14.197 19.8733L14.409 19.9942C14.4477 20.0154 14.4873 20.0356 14.526 20.0557L14.6775 20.1332L14.7123 20.1503L14.7744 20.1808L15.0146 20.294L15.0656 20.3198C15.1583 20.3609 15.2517 20.4004 15.3458 20.4384L15.414 20.4658L15.6783 20.5655L15.7113 20.5774C15.809 20.6119 15.9072 20.6446 16.006 20.6757L16.0771 20.6973C16.1804 20.7283 16.2774 20.7654 16.3813 20.7852C22.9834 22.0143 24.9017 16.7471 24.9017 16.7471C23.291 18.8843 20.432 19.4476 17.7233 18.8204C17.6206 18.7946 17.5211 18.7644 17.4209 18.7342L17.3454 18.7083C17.2479 18.6778 17.1509 18.6456 17.0545 18.6119L17.0144 18.5972C16.9284 18.5662 16.8428 18.5338 16.7578 18.5002L16.6855 18.4712C16.5923 18.4339 16.4999 18.3948 16.4083 18.3539L16.3531 18.3292L16.1194 18.218L16.0523 18.185C15.9916 18.1544 15.9313 18.1232 15.8713 18.0912L15.7507 18.0265C15.6778 17.9866 15.6056 17.9454 15.5342 17.9028L15.461 17.8613C15.366 17.8043 15.272 17.7457 15.1788 17.6857C15.153 17.6688 15.1281 17.6511 15.1025 17.634L14.9017 17.4981L14.8372 17.4516L14.6473 17.312L14.5629 17.2473L14.3916 17.1109L14.3152 17.049L14.1019 16.8681C14.0937 16.8609 14.0851 16.8543 14.076 16.8481C14.0002 16.78 13.9255 16.7107 13.8518 16.6403L13.7887 16.5784L13.6273 16.4176L13.5644 16.3529C13.4973 16.2832 13.4313 16.2122 13.3668 16.1401C13.3636 16.1364 13.3599 16.1331 13.3569 16.1297C13.2885 16.0535 13.2217 15.976 13.1563 15.8971L13.1038 15.8335L12.9592 15.6518L12.9061 15.5847L12.7395 15.3586C11.2356 13.2692 10.698 10.3878 11.897 8.02115L10.8331 9.39791ZM15.0712 7.71408C14.0841 9.16125 14.1376 11.0979 14.9077 12.6283C15.0365 12.8852 15.1824 13.1333 15.3444 13.3707C15.4923 13.5866 15.6564 13.8437 15.8527 14.0168C15.9238 14.0943 15.9982 14.1719 16.0742 14.251C16.0933 14.2708 16.113 14.2897 16.1326 14.3097C16.2064 14.3829 16.2819 14.4543 16.359 14.5239L16.3683 14.5321C16.4552 14.6093 16.544 14.6843 16.6347 14.757L16.6948 14.8045C16.785 14.8755 16.8771 14.9441 16.9712 15.0102C16.9737 15.0123 16.9763 15.0143 16.979 15.0162C17.0203 15.0454 17.0629 15.073 17.1051 15.1009C17.1253 15.1144 17.1443 15.1286 17.1645 15.1412C17.232 15.1853 17.3003 15.228 17.3695 15.2692L17.3985 15.2862L17.5793 15.3896C17.6005 15.4018 17.6221 15.4123 17.6439 15.4237L17.7731 15.4904C17.7796 15.4938 17.786 15.4962 17.7922 15.4994C17.8793 15.5433 17.9669 15.5847 18.0566 15.6248C18.0758 15.6332 18.0953 15.641 18.115 15.6492C18.1868 15.6805 18.2592 15.7104 18.3321 15.7389L18.4251 15.7737C18.4911 15.7981 18.5574 15.8216 18.6241 15.8442L18.714 15.8733C18.8088 15.9035 18.9026 15.9413 19.0016 15.9581C24.099 16.8182 25.2762 12.8208 25.2762 12.8208C24.2154 14.3765 22.1612 15.1193 19.9686 14.5399C19.8717 14.5141 19.7754 14.4856 19.68 14.4546C19.6508 14.4456 19.6222 14.436 19.5932 14.4288C19.5255 14.4064 19.4582 14.3828 19.3914 14.3579L19.3001 14.3233C19.2269 14.2975 19.1546 14.2652 19.0831 14.2342C19.0634 14.2256 19.0437 14.2179 19.0244 14.2089C18.9345 14.1695 18.8457 14.1275 18.7583 14.083C18.7133 14.0606 18.6691 14.0371 18.6248 14.0137L18.5478 13.9735C18.491 13.9422 18.4348 13.9099 18.3791 13.8765L18.3388 13.8507C18.27 13.8095 18.202 13.7672 18.1347 13.7236C18.1139 13.71 18.0938 13.6977 18.0732 13.6817L17.9408 13.5926C17.8473 13.5264 17.7555 13.458 17.6653 13.3874L17.6033 13.3377C16.6438 12.5661 15.8829 11.5117 15.5214 10.316C15.1423 9.07553 15.2242 7.68387 15.8832 6.5543L15.0712 7.71408ZM18.6349 6.45613C18.0529 7.32854 17.9959 8.41189 18.4024 9.37535C18.8283 10.3979 19.7009 11.2003 20.7193 11.5805C20.7613 11.5965 20.8034 11.6106 20.8485 11.6252L20.9045 11.6432C20.9644 11.6624 21.0241 11.6845 21.0859 11.6966C23.9007 12.2503 24.664 10.2255 24.8671 9.92742C24.1983 10.9082 23.0745 11.1437 21.6955 10.8028C21.587 10.7756 21.4668 10.7356 21.3595 10.698C21.2246 10.649 21.0924 10.593 20.9634 10.5302C20.718 10.4098 20.4853 10.2651 20.2687 10.0983C19.0321 9.14471 18.2654 7.32594 19.0707 5.84473M12.4187 24.9758L12.2282 25.6519L12.4187 24.9761V24.9758ZM18.0224 23.4279H17.1489C17.1242 23.4288 17.1004 23.4377 17.0812 23.4532C17.0619 23.4688 17.0482 23.4901 17.042 23.5141L16.4217 26.3845C16.4156 26.4084 16.4018 26.4297 16.3826 26.4452C16.3634 26.4607 16.3397 26.4696 16.3151 26.4705H15.6967C15.0848 26.4705 15.1556 26.0475 15.2831 25.4678L15.2871 25.4503L15.3612 25.0549L15.3932 24.8921L15.6755 23.5141C15.6782 23.5036 15.6784 23.4926 15.676 23.482C15.6737 23.4714 15.6689 23.4615 15.6621 23.4531C15.6552 23.4447 15.6465 23.438 15.6365 23.4335C15.6266 23.4291 15.6158 23.4271 15.605 23.4276H14.7082C14.6835 23.4284 14.6597 23.4372 14.6405 23.4528C14.6213 23.4684 14.6077 23.4898 14.6017 23.5138L14.1977 25.4298C13.9756 26.4439 14.0345 27.411 15.2418 27.4412L15.2767 27.4419H17.1715C17.1962 27.4409 17.22 27.432 17.2392 27.4165C17.2584 27.4009 17.2721 27.3796 17.2783 27.3556L18.0953 23.5138C18.1057 23.4664 18.0738 23.4276 18.0256 23.4276L18.0224 23.4279ZM21.5078 26.4806C21.5565 26.4806 21.5853 26.5193 21.5784 26.5669L21.4936 26.9817L21.5078 26.4806Z" fill="white"/>
<path d="M19.1714 25.9465C19.1707 25.901 19.2224 25.8229 19.2709 25.8229L19.1618 25.8212C19.1102 26.3158 19.1714 25.9465 19.1714 25.9465ZM21.5083 26.4804C21.557 26.4804 21.5859 26.5191 21.5789 26.5667L21.4802 27.0489L21.5083 26.4804ZM19.8832 27.4913H19.8423H19.8884H19.8832ZM7.03994 25.9568L7.1757 25.3552L7.02066 26.0427L7.00248 26.1289L7.04021 25.9564L7.03994 25.9568ZM8.66443 23.4178H7.70494C7.68014 23.4188 7.6563 23.4276 7.63691 23.4431C7.61753 23.4586 7.60361 23.4799 7.59721 23.5039L7.41523 24.305C7.41221 24.3153 7.41173 24.3263 7.41382 24.3369C7.41592 24.3475 7.42053 24.3574 7.42727 24.3659C7.43401 24.3743 7.44269 24.381 7.45256 24.3854C7.46243 24.3898 7.47322 24.3917 7.484 24.3911H8.45102C8.47574 24.3902 8.4995 24.3813 8.51876 24.3658C8.53802 24.3502 8.55176 24.3289 8.55793 24.305L8.73375 23.502C8.744 23.4548 8.71297 23.416 8.66402 23.416L8.66443 23.4178ZM5.66824 29.0677L6.45957 29.074C6.22592 29.074 5.84023 29.0696 5.66797 29.0676L5.66824 29.0677Z" fill="white"/>
<path d="M8.38571 24.6681H7.41842C7.39362 24.6691 7.36978 24.6779 7.3504 24.6934C7.33101 24.7089 7.3171 24.7302 7.31069 24.7542L7.0393 25.9573L7.00157 26.13L6.74317 27.3583C6.73041 27.4157 6.71492 27.4723 6.69669 27.5281C6.69669 27.5281 6.51581 28.0657 6.21243 28.0597L5.91137 28.0541C5.88668 28.0547 5.86284 28.0633 5.84332 28.0784C5.8238 28.0936 5.80961 28.1145 5.80282 28.1383L5.60253 28.9814C5.59939 28.9917 5.59877 29.0026 5.60072 29.0132C5.60267 29.0238 5.60714 29.0338 5.61374 29.0423C5.62034 29.0509 5.62889 29.0577 5.63867 29.0622C5.64844 29.0667 5.65916 29.0688 5.66993 29.0684L6.46153 29.0748C7.22032 29.0748 7.62008 28.6543 7.87657 27.4448L8.45803 24.7572C8.46842 24.7101 8.43684 24.6712 8.38831 24.6712L8.38571 24.6681ZM22.124 27.4431C22.0755 27.4431 22.0465 27.4044 22.0543 27.3568L22.7818 23.9492L22.124 27.4431Z" fill="white"/>
<path d="M22.0655 27.3994C22.0596 27.3756 22.0631 27.3174 22.0733 27.2701L22.4185 25.6524L22.0547 27.3562C22.0443 27.4038 22.0759 27.4425 22.1244 27.4425H22.2129C22.1644 27.4425 22.0713 27.4231 22.0655 27.3994ZM23.0786 27.4231C23.0522 27.4335 22.9907 27.4425 22.9422 27.4425H23.0305C23.0551 27.4415 23.0788 27.4326 23.098 27.417C23.1171 27.4014 23.1306 27.3799 23.1364 27.3559L23.1541 27.2697C23.1445 27.3171 23.1024 27.4125 23.0765 27.4231H23.0786ZM26.1533 24.1768L26.1933 24.3422C26.2045 24.3896 26.1738 24.428 26.1254 24.4282M23.4127 25.9868L23.4484 25.8153L23.5872 25.1653L23.4301 25.9013L23.4127 25.9866V25.9868ZM22.7944 23.8926L22.7641 24.0346L22.4188 25.6524L22.7827 23.9486L22.7944 23.8929V23.8926Z" fill="white"/>
<path d="M26.1935 24.3427L26.1534 24.1772L26.0941 23.9188C26.0155 23.6138 25.785 23.4373 25.2842 23.4373L22.9789 23.4358C22.9542 23.4367 22.9305 23.4455 22.9113 23.4611C22.8921 23.4767 22.8785 23.4981 22.8726 23.5221L22.8369 23.6909L22.7852 23.9459L22.076 27.2675C22.0657 27.3151 22.0624 27.3709 22.0683 27.3967C22.0741 27.4225 22.1672 27.4399 22.2156 27.4399H22.9444C22.9929 27.4399 23.0541 27.431 23.0808 27.4205C23.1075 27.4098 23.1464 27.3171 23.1583 27.267L23.4349 25.8988L23.7308 24.5126C23.7369 24.4887 23.7506 24.4675 23.7698 24.452C23.789 24.4365 23.8126 24.4276 23.8373 24.4266L26.1302 24.4255C26.1786 24.4255 26.2093 24.3868 26.1981 24.3395L26.1935 24.3427ZM29.1455 22.8456L28.969 22.8463H28.2351C28.2083 22.848 28.1821 22.8554 28.1583 22.868C28.1345 22.8806 28.1136 22.898 28.097 22.9192L26.4742 25.2967C26.4468 25.3368 26.4155 25.3309 26.4044 25.2838L26.2849 24.7599C26.2785 24.736 26.2646 24.7147 26.2452 24.6992C26.2258 24.6838 26.202 24.6749 26.1772 24.6739H25.134C25.0854 24.6739 25.0565 24.712 25.0699 24.7587L25.535 26.3966C25.5484 26.4431 25.5493 26.5198 25.5376 26.5671L25.3309 27.3598C25.3274 27.3699 25.3264 27.3808 25.3282 27.3914C25.3299 27.402 25.3343 27.412 25.3409 27.4205C25.3476 27.4289 25.3562 27.4356 25.366 27.4399C25.3759 27.4442 25.3866 27.446 25.3974 27.4452H26.431C26.4559 27.4442 26.4799 27.4354 26.4997 27.4202C26.5194 27.4049 26.5339 27.3838 26.5412 27.3599L26.7479 26.5674C26.764 26.5116 26.7894 26.4588 26.8228 26.4114L29.4602 22.9141C29.4895 22.8753 29.4738 22.8438 29.4251 22.8442L29.1486 22.8462L29.1455 22.8456ZM20.8562 24.8967C20.8501 24.9483 20.8016 24.9872 20.7529 24.9872H19.4297C19.3841 24.9872 19.3608 24.9561 19.3678 24.9173L19.3687 24.9103L19.3748 24.8879C19.504 24.552 19.7585 24.3315 20.242 24.3315C20.7865 24.3315 20.8928 24.5977 20.8558 24.8967H20.8562ZM20.4681 23.3699C18.7703 23.3699 18.368 24.4005 18.1424 25.4407C17.9165 26.5009 17.9361 27.4925 19.6929 27.4925H19.9714L20.1859 27.4917L21.3039 27.485C21.3284 27.4839 21.3519 27.4749 21.3709 27.4593C21.3898 27.4437 21.4032 27.4223 21.409 27.3985L21.5788 26.5685C21.5886 26.5209 21.5569 26.4821 21.5083 26.4821H19.9287C19.3008 26.4821 19.114 26.3151 19.1827 25.8244H21.7076C21.7279 25.8242 21.7477 25.8179 21.7644 25.8063C21.7811 25.7947 21.7939 25.7783 21.8011 25.7594C21.804 25.7523 21.8061 25.7449 21.8073 25.7373C22.182 24.3238 22.0745 23.371 20.4686 23.371L20.4681 23.3699ZM12.443 24.8911L12.4192 24.9755L12.2286 25.6515L12.0379 26.327C12.0299 26.3508 12.015 26.3716 11.9949 26.3867C11.9749 26.4019 11.9508 26.4106 11.9258 26.4118H10.9162C10.1508 26.4118 9.96441 25.8131 10.1508 24.93C10.3368 24.0269 10.7026 23.4652 11.4559 23.4085C12.4854 23.331 12.6911 24.055 12.443 24.8908V24.8911ZM13.1351 26.3601C13.1351 26.3601 13.6106 25.205 13.7191 24.5375C13.8664 23.644 13.4194 22.3486 11.6919 22.3486C9.97398 22.3486 9.22818 23.5854 8.9438 24.9329C8.65943 26.287 9.03213 27.4748 10.7397 27.4655L13.3461 27.4559C13.3712 27.4547 13.3952 27.4458 13.415 27.4304C13.4347 27.4151 13.4493 27.394 13.4566 27.37L13.6762 26.5333C13.6797 26.5232 13.6806 26.5124 13.6789 26.5018C13.6773 26.4912 13.673 26.4812 13.6666 26.4726C13.6601 26.464 13.6515 26.4572 13.6417 26.4528C13.6318 26.4484 13.621 26.4466 13.6103 26.4475L13.1899 26.4449C13.1486 26.4446 13.1252 26.4181 13.1299 26.3829C13.1309 26.3762 13.1326 26.3696 13.1351 26.3632V26.3601Z" fill="white"/>
<path d="M21.6373 25.5872C21.6373 25.6026 21.6312 25.6173 21.6203 25.6281C21.6095 25.639 21.5947 25.6451 21.5794 25.6451C21.564 25.6451 21.5493 25.639 21.5384 25.6281C21.5276 25.6173 21.5215 25.6026 21.5215 25.5872C21.5215 25.5718 21.5276 25.5571 21.5384 25.5463C21.5493 25.5354 21.564 25.5293 21.5794 25.5293C21.5947 25.5293 21.6095 25.5354 21.6203 25.5463C21.6312 25.5571 21.6373 25.5718 21.6373 25.5872Z" fill="white"/>
</g>
<defs>
<linearGradient id="paint0_linear_836_319" x1="0" y1="0" x2="35" y2="35" gradientUnits="userSpaceOnUse">
<stop stop-color="#FF5C00"/>
<stop offset="1" stop-color="#FF0F00"/>
</linearGradient>
<clipPath id="clip0_836_319">
<rect width="35" height="35" fill="white"/>
</clipPath>
</defs>
</svg>
